# xmcd CD database file
#
# Track frame offsets:
#	150
#	17465
#	39267
#	59290
#	78487
#	100132
#	125627
#	146717
#	172370
#	186380
#	203807
#	226032
#	249200
#	274537
#	292522
#	312342
#
# Disc length: 4413 seconds
#
# Revision: 0
# Processed by: cddbd v1.5.2PL0 Copyright (c) Steve Scherf et al.
# Submitted via: CDex 1.70beta2
#
DISCID=d6113b10
DTITLE=RMM Records - Los Eternos de la Salsa
DYEAR=1900
DGENRE=Salsa
TTITLE0=Que le Den Candela - Celia Cruz
TTITLE1=La Carta - Oscar D'Leon
TTITLE2=Te Quiero Mia - Ismael Miranda
TTITLE3=Cuantas Cosas - Cheo Faliciano
TTITLE4=Sazon - Celia Cruz
TTITLE5=Soledad - Oscar D'Leon
TTITLE6=El Bribon del Aguacera - Ismael Miranda
TTITLE7=Yo No Soy Un Angel - Cheo Feliciano
TTITLE8=Azucar Negra - Celia Cruz
TTITLE9=Me Voy Pa' Cali - Oscar D'Leon
TTITLE10=No Me Digas Adios - Ismael Miranda
TTITLE11=Cantando - Cheo Feliciano
TTITLE12=La Guagua - Celia Cruz
TTITLE13=Como Olvidarta - Oscar D'Leon
TTITLE14=Un Nuevo Viaje - Ismael Miranda
TTITLE15=Half Crazy - Cheo Feliciano
EXTD=
EXTT0=
EXTT1=
EXTT2=
EXTT3=
EXTT4=
EXTT5=
EXTT6=
EXTT7=
EXTT8=
EXTT9=
EXTT10=
EXTT11=
EXTT12=
EXTT13=
EXTT14=
EXTT15=
PLAYORDER=
